<svg id="Layer_1" data-name="Layer 1" xmlns="http://www.w3.org/2000/svg" viewBox="0 0 874 1024"><title>flask_icon</title><path d="M685.75,636.29a2.07,2.07,0,0,1,2.77.92q45.9,91.34,91.78,182.68,14,27.83,27.78,55.74c21.41,43.3-7.14,87.82-48.75,91.88-.07,0-17.25,2-24.36,2s-5.07,1-20.3,0c-7.16-.48-11.92-3.16-17-8.28-32.58-33-65.45-65.73-98.26-98.51-15-14.94-27.85-14.93-42.8,0q-25.73,25.67-51.4,51.39c-14.56,14.5-28.87,14.57-43.35.11-47.75-47.7-96-94.92-142.82-143.51-15.2-15.78-27.38-18-42.48-.56s-32.48,33.07-48.91,49.43c-12.79,12.73-32.27,15-45.45,3.5C172,814.17,162.11,804.67,153.56,794a2,2,0,0,1-.43-.94c-.74-4.74,3.18-7,5.85-9.7q54.53-54.8,109.29-109.37c18.52-18.39,34-18.18,52.86.38,16.75,16.51,33.2,33.33,49.94,49.85,12.31,12.15,23.74,12.15,36-.08Q478.31,653,549.4,581.75c3.42-3.42,6.69-7,10.75-9.73,12.64-8.47,27-7.48,37.83,3.15,18,17.66,35.75,35.67,53.61,53.52C667.41,644.47,668.15,645,685.75,636.29Z" transform="translate(0 0)" style="fill:#bfe5f8"/><path d="M687,634.16a2.07,2.07,0,0,1-.27,2.25c-10.16,11.86-18.51,12.14-30.07.72-19.46-19.22-38.69-38.67-58-58-14.25-14.23-28.68-14.19-43.2.32C506.92,627.91,458.05,676,410.3,725.19c-12.5,12.87-30.83,13.07-42.27.23-16.32-18.33-34.33-35.18-51.92-52.35-14.21-13.87-28.87-14.18-42.87-.31C233.63,712,194.37,751.54,155,791a5.22,5.22,0,0,0-.47.55,2.07,2.07,0,0,1-3.09.25c-8.83-8.55-17.63-17.13-26.54-25.6-3-2.89-3.36-5.79-1.12-9.2a26.79,26.79,0,0,0,1.37-2.79q91-182.07,182-364.14c.52-1,1.1-2,1.69-3.05a2.08,2.08,0,0,1,2.69-.83c3,1.47,4.78,4.3,7,6.48Q389.75,463.85,461,535.17c16.45,16.45,28.57,16.4,45-.08,17.14-17.14,34.21-34.36,51.44-51.41,13.13-13,27.46-12.44,41.13-.2a178.74,178.74,0,0,1,44.18,60.58C656.55,574.53,672.14,604.18,687,634.16Z" transform="translate(0 0)" style="fill:#80ccf1"/><path d="M872.1,883c4,15,.51,38.79,0,41-10.32,44.72-37.53,76-80.45,92.78-7.18,2.81-14.72,4.7-22.11,7a5.78,5.78,0,0,1-1.7.26H108.67a5.83,5.83,0,0,1-2.19-.43A29.69,29.69,0,0,0,102,1022c-49.62-11.2-84.14-49.68-98.84-98-4-12.74-4-32-1-41,6-17.88,8.74-29.07,17-45.78q136.26-274.59,273.6-548.65c2.77-5.56,4.92-12.14,4.95-18.26.35-65.83.22-131.66.22-197.49V67.89a5.82,5.82,0,0,0-5.82-5.82h-51.8a5.82,5.82,0,0,1-5.82-5.82V5.82A5.82,5.82,0,0,1,240.31,0H633.94a5.82,5.82,0,0,1,5.82,5.82V57a5.82,5.82,0,0,1-5.82,5.82H583.19a5.75,5.75,0,0,0-5.78,5.66v0c0,68.25-.13,136.49.13,204.73,0,4.82,2,10,4.26,14.39,68.68,137.79,138.13,275.2,206,413.38C817.29,761,851.87,818.61,872.1,883ZM366.21,62.88a5.84,5.84,0,0,0-5.83,5.84c0,2.59,0,5,0,7.31,0,68.59.17,137.17-.24,205.76a55.62,55.62,0,0,1-5.41,23.34c-14.34,29.34-29.84,58.11-44.47,87.31Q220,572.65,129.87,752.94c-2.41,4.81-2.09,7.6,1.72,11.34,18,17.68,35.61,35.79,53.6,53.49,13.3,13.08,26.51,12.7,40-.73,16.92-16.85,34.4-33.19,50.46-50.83,12.34-13.56,31.47-13.57,44.46-.22,46.62,47.92,94.28,94.83,141.54,142.12,16.21,16.21,28.63,16.32,44.59.35,16.64-16.64,33.22-33.35,49.94-49.93,14.43-14.32,27.94-14.24,42.3.11,31.37,31.35,62.91,62.53,93.9,94.25C699.34,960,706.9,964,717,964c8,0,34.49-.91,50.93-5.12,32.94-8.43,55.05-50.12,36.39-87.08Q711,687,618.54,501.63,568.65,402.05,519.1,302.3a41,41,0,0,1-4-17.46c-.27-70-.17-139.9-.17-209.85V68.7a5.82,5.82,0,0,0-5.82-5.82Z" transform="translate(0 0)" style="fill:#ffffff"/></svg>